<svg xmlns="http://www.w3.org/2000/svg" viewBox="0 0 32 32"><path d="M25,12H7A5,5,0,0,1,7,2H25a1,1,0,0,1,0,2H7a3,3,0,0,0,0,6H25a1,1,0,0,1,0,2Z"/><path d="M27,30H5a3,3,0,0,1-3-3V7A1,1,0,0,1,4,7V27a1,1,0,0,0,1,1H27a1,1,0,0,0,1-1V13a1,1,0,0,0-1-1H8a1,1,0,0,1,0-2H27a3,3,0,0,1,3,3V27A3,3,0,0,1,27,30Z"/><path d="M25 8H7A1 1 0 0 1 7 6H25a1 1 0 0 1 0 2zM15 24a1 1 0 0 1-.45-.11L11 22.12 7.45 23.89A1 1 0 0 1 6 23V11a1 1 0 0 1 2 0V21.38l2.55-1.27a1 1 0 0 1 .9 0L14 21.38V11a1 1 0 0 1 2 0V23a1 1 0 0 1-.47.85A1 1 0 0 1 15 24z"/></svg>