<svg xmlns="http://www.w3.org/2000/svg" enable-background="new 0 0 1024 1024" viewBox="0 0 1024 1024"><path d="M911.5,195.9c0,6.3,0,12.6,0,19c0,17.2,0,34.4,0,51.6c0,25.4,0,50.8,0,76.2c0,31.1,0,62.3,0,93.4
				c0,33.9,0,67.8,0,101.7c0,34.2,0,68.3,0,102.5c0,31.8,0,63.5,0,95.3c0,26.7,0,53.5,0,80.2c0,19,0,38.1,0,57.1
				c0,8.7,0,17.4,0,26.1c0,2.6-0.2,5.1-0.5,7.7c0.5-3.5,1-7.1,1.4-10.6c-0.7,4.5-1.9,8.7-3.6,12.9c1.3-3.2,2.7-6.4,4-9.6
				c-1.8,4-4,7.7-6.7,11.2c2.1-2.7,4.2-5.4,6.3-8.1c-2.5,3.1-5.2,5.8-8.3,8.3c2.7-2.1,5.4-4.2,8.1-6.3c-3.5,2.7-7.2,4.9-11.2,6.7
				c3.2-1.3,6.4-2.7,9.6-4c-4.2,1.7-8.4,2.9-12.9,3.6c3.5-0.5,7.1-1,10.6-1.4c-8.6,1.1-17.6,0.5-26.3,0.5c-18.7,0-37.4,0-56.1,0
				c-28.1,0-56.2,0-84.3,0c-34.3,0-68.6,0-102.8,0c-37.6,0-75.2,0-112.8,0c-38,0-75.9,0-113.9,0c-35.4,0-70.7,0-106.1,0
				c-29.9,0-59.8,0-89.7,0c-21.2,0-42.4,0-63.6,0c-9.7,0-19.4,0-29.1,0c-2.6,0-5.2-0.2-7.8-0.5c3.5,0.5,7.1,1,10.6,1.4
				c-4.5-0.7-8.7-1.9-12.9-3.6c3.2,1.3,6.4,2.7,9.6,4c-4-1.8-7.7-4-11.2-6.7c2.7,2.1,5.4,4.2,8.1,6.3c-3.1-2.5-5.8-5.2-8.3-8.3
				c2.1,2.7,4.2,5.4,6.3,8.1c-2.7-3.5-4.9-7.2-6.7-11.2c1.3,3.2,2.7,6.4,4,9.6c-1.7-4.2-2.9-8.4-3.6-12.9c0.5,3.5,1,7.1,1.4,10.6
				c-1-8-0.5-16.3-0.5-24.3c0-16.9,0-33.8,0-50.6c0-25.3,0-50.6,0-75.9c0-31,0-62,0-93c0-34.2,0-68.4,0-102.6c0-34.4,0-68.7,0-103.1
				c0-32,0-64,0-96c0-26.9,0-53.9,0-80.8c0-19.2,0-38.4,0-57.6c0-8.8,0-17.5,0-26.3c0-2.6,0.2-5.1,0.5-7.7c-0.5,3.5-1,7.1-1.4,10.6
				c0.7-4.5,1.9-8.7,3.6-12.9c-1.3,3.2-2.7,6.4-4,9.6c1.8-4,4-7.7,6.7-11.2c-2.1,2.7-4.2,5.4-6.3,8.1c2.5-3.1,5.2-5.8,8.3-8.3
				c-2.7,2.1-5.4,4.2-8.1,6.3c3.5-2.7,7.2-4.9,11.2-6.7c-3.2,1.3-6.4,2.7-9.6,4c4.2-1.7,8.4-2.9,12.9-3.6c-3.5,0.5-7.1,1-10.6,1.4
				c8.6-1.1,17.6-0.5,26.3-0.5c18.7,0,37.4,0,56.1,0c28.1,0,56.2,0,84.3,0c34.3,0,68.6,0,102.8,0c37.6,0,75.2,0,112.8,0
				c38,0,75.9,0,113.9,0c35.4,0,70.7,0,106.1,0c29.9,0,59.8,0,89.7,0c21.2,0,42.4,0,63.6,0c9.7,0,19.4,0,29.1,0
				c2.6,0,5.2,0.2,7.8,0.5c-3.5-0.5-7.1-1-10.6-1.4c4.5,0.7,8.7,1.9,12.9,3.6c-3.2-1.3-6.4-2.7-9.6-4c4,1.8,7.7,4,11.2,6.7
				c-2.7-2.1-5.4-4.2-8.1-6.3c3.1,2.5,5.8,5.2,8.3,8.3c-2.1-2.7-4.2-5.4-6.3-8.1c2.7,3.5,4.9,7.2,6.7,11.2c-1.3-3.2-2.7-6.4-4-9.6
				c1.7,4.2,2.9,8.4,3.6,12.9c-0.5-3.5-1-7.1-1.4-10.6C911.3,191.3,911.5,193.6,911.5,195.9c0.1,10.3,4.4,20.9,11.7,28.3
				c6.9,6.9,18.3,12.2,28.3,11.7c21.4-1,40.3-17.6,40-40c-0.3-22.8-8.7-43.1-23.3-60.4c-5.8-6.8-13.3-12.7-20.9-17.2
				c-7.9-4.7-17.2-8.7-26.3-10.3c-8-1.4-15.7-2.2-23.7-2.2c-12.7,0-25.3,0-38,0c-23.5,0-47,0-70.5,0c-31.3,0-62.7,0-94,0
				c-36.2,0-72.5,0-108.7,0c-38.1,0-76.3,0-114.4,0c-37.1,0-74.2,0-111.3,0c-33.1,0-66.2,0-99.3,0c-26.1,0-52.2,0-78.4,0
				c-16.2,0-32.4,0-48.5,0c-3.4,0-6.9,0-10.3,0c-23.8,0.1-46,8.9-63.5,25c-18.2,16.8-27.7,41.7-27.8,66.1c0,3.6,0,7.2,0,10.8
				c0,17.3,0,34.6,0,52c0,27.8,0,55.6,0,83.5c0,34.7,0,69.4,0,104c0,37.7,0,75.5,0,113.2c0,37.5,0,75,0,112.5c0,33.5,0,66.9,0,100.4
				c0,25.8,0,51.6,0,77.4c0,14.5,0,29,0,43.5c0,2.8-0.1,5.6,0.1,8.4c1.2,22.5,9.6,43,25,59.5c13.8,14.9,33,24,52.9,26.6
				c10.5,1.4,20.8,1.2,31.5,1.2c18.6,0,37.3,0,55.9,0c27.9,0,55.8,0,83.8,0c34.2,0,68.5,0,102.7,0c37.6,0,75.2,0,112.8,0
				c38,0,76,0,113.9,0c35.4,0,70.8,0,106.2,0c29.9,0,59.7,0,89.6,0c21.3,0,42.7,0,64,0c9.9,0,19.7,0,29.6,0
				c24.2-0.1,48.2-9.4,65.2-26.9c16.9-17.3,25.9-40.4,25.9-64.5c0-11,0-21.9,0-32.9c0-23.1,0-46.2,0-69.2c0-31.8,0-63.6,0-95.4
				c0-36.8,0-73.6,0-110.4c0-38.1,0-76.3,0-114.4c0-35.9,0-71.7,0-107.6c0-30,0-59.9,0-89.9c0-20.4,0-40.8,0-61.2
				c0-7.2,0-14.5,0-21.7c0-20.9-18.4-41-40-40C929.8,156.9,911.5,173.5,911.5,195.9z"/><path d="M911.5,195.9c0,47.4,0,94.7,0,142.1c0,6.6,0,13.2,0,19.7c13.3-13.3,26.7-26.7,40-40c-7.9,0-15.7,0-23.6,0
				c-21.3,0-42.6,0-63.8,0c-31.6,0-63.2,0-94.8,0c-38.4,0-76.8,0-115.2,0c-42.2,0-84.4,0-126.6,0c-42.4,0-84.9,0-127.3,0
				c-39.7,0-79.5,0-119.2,0c-33.4,0-66.9,0-100.3,0c-24.1,0-48.3,0-72.4,0c-11.4,0-22.8-0.2-34.2,0c-0.5,0-1,0-1.5,0
				c13.3,13.3,26.7,26.7,40,40c0-48,0-96.1,0-144.1c0-8.1-0.5-16.6,0.5-24.7c-0.5,3.5-1,7.1-1.4,10.6c0.7-4.5,1.9-8.7,3.6-12.9
				c-1.3,3.2-2.7,6.4-4,9.6c1.8-4,4-7.7,6.7-11.2c-2.1,2.7-4.2,5.4-6.3,8.1c2.5-3.1,5.2-5.8,8.3-8.3c-2.7,2.1-5.4,4.2-8.1,6.3
				c3.5-2.7,7.2-4.9,11.2-6.7c-3.2,1.3-6.4,2.7-9.6,4c4.2-1.7,8.4-2.9,12.9-3.6c-3.5,0.5-7.1,1-10.6,1.4c8.6-1.1,17.6-0.5,26.3-0.5
				c18.7,0,37.4,0,56.1,0c28.1,0,56.2,0,84.3,0c34.3,0,68.6,0,102.8,0c37.6,0,75.2,0,112.8,0c38,0,75.9,0,113.9,0
				c35.4,0,70.7,0,106.1,0c29.9,0,59.8,0,89.7,0c21.2,0,42.4,0,63.6,0c9.7,0,19.4,0,29.1,0c2.6,0,5.2,0.2,7.8,0.5
				c-3.5-0.5-7.1-1-10.6-1.4c4.5,0.7,8.7,1.9,12.9,3.6c-3.2-1.3-6.4-2.7-9.6-4c4,1.8,7.7,4,11.2,6.7c-2.7-2.1-5.4-4.2-8.1-6.3
				c3.1,2.5,5.8,5.2,8.3,8.3c-2.1-2.7-4.2-5.4-6.3-8.1c2.7,3.5,4.9,7.2,6.7,11.2c-1.3-3.2-2.7-6.4-4-9.6c1.7,4.2,2.9,8.4,3.6,12.9
				c-0.5-3.5-1-7.1-1.4-10.6C911.3,191.3,911.5,193.6,911.5,195.9c0.1,10.3,4.4,20.9,11.7,28.3c6.9,6.9,18.3,12.2,28.3,11.7
				c21.4-1,40.3-17.6,40-40c-0.2-15.2-3.9-28.9-10.6-42.4c-6.4-13-16.8-22.9-28.2-31.5c-14.5-10.9-33.4-16.1-51.4-16.2
				c-3.9,0-7.9,0-11.8,0c-23.5,0-46.9,0-70.4,0c-39,0-78.1,0-117.1,0c-47.5,0-95,0-142.5,0c-49.9,0-99.8,0-149.7,0
				c-45,0-90.1,0-135.1,0c-34.1,0-68.2,0-102.2,0c-16.1,0-32.1,0-48.2,0c-32.7,0.1-65.5,17.4-80.7,47.1
				c-7.4,14.4-10.9,29.4-10.9,45.5c0,6.4,0,12.9,0,19.3c0,43.4,0,86.8,0,130.1c0,3.3,0,6.6,0,9.9c0,21.6,18.3,40,40,40
				c7.9,0,15.7,0,23.6,0c21.3,0,42.6,0,63.8,0c31.6,0,63.2,0,94.8,0c38.4,0,76.8,0,115.2,0c42.2,0,84.4,0,126.6,0
				c42.4,0,84.9,0,127.3,0c39.7,0,79.5,0,119.2,0c33.4,0,66.9,0,100.3,0c24.1,0,48.3,0,72.4,0c11.4,0,22.8,0.1,34.2,0
				c0.5,0,1,0,1.5,0c21.6,0,40-18.3,40-40c0-47.4,0-94.7,0-142.1c0-6.6,0-13.2,0-19.7c0-20.9-18.4-41-40-40
				C929.8,156.9,911.5,173.5,911.5,195.9z"/><path d="M325.2 211.2c0-40.1 0-80.2 0-120.4 0-5.6 0-11.2 0-16.8 0-20.9-18.4-41-40-40-21.7 1-40 17.6-40 40 0 40.1 0 80.2 0 120.4 0 5.6 0 11.2 0 16.8 0 20.9 18.4 41 40 40C306.9 250.2 325.2 233.6 325.2 211.2L325.2 211.2zM698.8 74.1c0 40.1 0 80.2 0 120.4 0 5.6 0 11.2 0 16.8 0 20.9 18.4 41 40 40 21.7-1 40-17.6 40-40 0-40.1 0-80.2 0-120.4 0-5.6 0-11.2 0-16.8 0-20.9-18.4-41-40-40C717.1 35 698.8 51.6 698.8 74.1L698.8 74.1z"/></svg>