<svg xmlns="http://www.w3.org/2000/svg" enable-background="new 0 0 64 64" viewBox="0 0 64 64"><path d="M60,19h-3v-3c0-0.552-0.447-1-1-1H35c-1.201,0-2.266,0.542-3,1.382C31.266,15.542,30.201,15,29,15H8c-0.553,0-1,0.448-1,1
		v3H4c-0.553,0-1,0.448-1,1v36c0,0.552,0.447,1,1,1h33v3c0,0.347,0.18,0.668,0.475,0.851s0.661,0.198,0.973,0.044L40,60.118
		l1.553,0.776C41.694,60.965,41.847,61,42,61c0.183,0,0.365-0.05,0.525-0.149C42.82,60.668,43,60.347,43,60v-3h17
		c0.553,0,1-0.448,1-1V20C61,19.448,60.553,19,60,19z M55,51H43V17h12V51z M35,17h2v34h-2c-1.103,0-2-0.897-2-2V19
		C33,17.897,33.897,17,35,17z M9,17h20c1.103,0,2,0.897,2,2v30c0,1.103-0.897,2-2,2H9V17z M5,55V21h2v31c0,0.552,0.447,1,1,1h21
		c1.201,0,2.266-0.542,3-1.382C32.734,52.458,33.799,53,35,53h2v2H5z M41,58.382l-0.553-0.276c-0.281-0.141-0.613-0.141-0.895,0
		L39,58.382V17h2V58.382z M59,55H43v-2h13c0.553,0,1-0.448,1-1V21h2V55z"/><path d="M12 23h16c.553 0 1-.448 1-1s-.447-1-1-1H12c-.553 0-1 .448-1 1S11.447 23 12 23zM12 29h10c.553 0 1-.448 1-1s-.447-1-1-1H12c-.553 0-1 .448-1 1S11.447 29 12 29zM28 27h-3c-.553 0-1 .448-1 1s.447 1 1 1h3c.553 0 1-.448 1-1S28.553 27 28 27zM28 39H18c-.553 0-1 .448-1 1s.447 1 1 1h10c.553 0 1-.448 1-1S28.553 39 28 39zM12 41h3c.553 0 1-.448 1-1s-.447-1-1-1h-3c-.553 0-1 .448-1 1S11.447 41 12 41zM12 35h16c.553 0 1-.448 1-1s-.447-1-1-1H12c-.553 0-1 .448-1 1S11.447 35 12 35zM12 47h16c.553 0 1-.448 1-1s-.447-1-1-1H12c-.553 0-1 .448-1 1S11.447 47 12 47zM11 11h40c.182 0 .359-.049.515-.143l5-3C56.815 7.677 57 7.351 57 7s-.185-.677-.485-.857l-5-3C51.359 3.049 51.182 3 51 3H11C8.794 3 7 4.794 7 7S8.794 11 11 11zM54.057 7l-3.334 2H15V5h35.723L54.057 7zM11 5h2v4h-2C9.897 9 9 8.103 9 7S9.897 5 11 5z"/></svg>