<svg xmlns="http://www.w3.org/2000/svg" width="24" height="24" viewBox="0 0 6.35 6.35"><path fill-rule="evenodd" d="M 12.003906 0.99804688 C 5.9406242 0.99804688 0.99610176 5.9347776 0.99609375 11.998047 C 0.99607882 18.061354 5.9406079 23.003906 12.003906 23.003906 C 18.067205 23.003906 23.001968 18.061354 23.001953 11.998047 C 23.001945 5.9347776 18.067189 0.99804688 12.003906 0.99804688 z M 12.003906 2.9980469 C 16.986309 2.9980469 21.001947 7.0156469 21.001953 11.998047 C 21.001966 16.980447 16.986323 21.003906 12.003906 21.003906 C 7.02149 21.003906 2.9960815 16.980447 2.9960938 11.998047 C 2.9961003 7.0156469 7.0215033 2.9980469 12.003906 2.9980469 z M 11.988281 4.984375 A 1.0001001 1.0001001 0 0 0 10.998047 6.0039062 L 10.998047 11.998047 A 1.0001001 1.0001001 0 0 0 11.294922 12.705078 L 15.294922 16.707031 A 1.0001001 1.0001001 0 1 0 16.705078 15.289062 L 13 11.583984 L 13 6.0039062 A 1.0001001 1.0001001 0 0 0 11.988281 4.984375 z " color="#000" font-family="sans-serif" font-weight="400" overflow="visible" paint-order="stroke fill markers" transform="scale(.26458)" style="line-height:normal;font-variant-ligatures:normal;font-variant-position:normal;font-variant-caps:normal;font-variant-numeric:normal;font-variant-alternates:normal;font-feature-settings:normal;text-indent:0;text-align:start;text-decoration-line:none;text-decoration-style:solid;text-decoration-color:#000;text-transform:none;text-orientation:mixed;shape-padding:0;isolation:auto;mix-blend-mode:normal"/></svg>